# xmcd
#
# Track frame offsets: 
#        150
#        13703
#        27716
#        42476
#        57720
#        73137
#        87781
#        102977
#        120199
#        140274
#        154114
#        167756
#        184511
#        196385
#        214284
#        226885
#        244873
#        258073
#        270728
#        281585
#        290810
#        307235
#        323585
#        343479
#
# Disc length: 4784 seconds
#
# Revision: 0
# Processed by: cddbd v1.5.2PL0 Copyright (c) Steve Scherf et al.
# Submitted via: ExactAudioCopyFreeDBPlugin 1.0
#
DISCID=7112ae18
DTITLE=Édith Piaf - Edith PIAF best of [CD2]
DYEAR=2010
DGENRE=Oldies
TTITLE0=Mon manège à moi
TTITLE1=La vie en rose
TTITLE2=Padam padam
TTITLE3=Sous le ciel de Paris
TTITLE4=Le fanion de la legion
TTITLE5=L'éffet que tu m'fait
TTITLE6=Jean et Martine
TTITLE7=Soeur Anne
TTITLE8=Monsieur Saint Pierre
TTITLE9=Mea culpa
TTITLE10=Monsieur et madame
TTITLE11=Regarde moi toujours comme ça
TTITLE12=Y'a pas d'printemps
TTITLE13=Toi qui sais
TTITLE14=Le petit monsieur triste
TTITLE15=Les grognards
TTITLE16=Télégramme
TTITLE17=Tu es partout
TTITLE18=Le ça ira
TTITLE19=L'homme au piano
TTITLE20=Mon apero
TTITLE21=Sérénade du pave
TTITLE22=C'était une histoire d'amour
TTITLE23=Autumn leaves
EXTD=
EXTT0=
EXTT1=
EXTT2=
EXTT3=
EXTT4=
EXTT5=
EXTT6=
EXTT7=
EXTT8=
EXTT9=
EXTT10=
EXTT11=
EXTT12=
EXTT13=
EXTT14=
EXTT15=
EXTT16=
EXTT17=
EXTT18=
EXTT19=
EXTT20=
EXTT21=
EXTT22=
EXTT23=
PLAYORDER=
